Coordinates
version=1
nRows=29
nColumns=22
inDegrees=yes

Units are S.I. units (second, meters, Newtons, ...)
If the header above contains a line with 'inDegrees', this indicates whether rotational values are in degrees (yes) or radians (no).

endheader
time	pelvis_tilt	pelvis_list	pelvis_rotation	pelvis_tx	pelvis_ty	pelvis_tz	hip_flexion_r	hip_adduction_r	hip_rotation_r	knee_angle_r	ankle_angle_r	subtalar_angle_r	hip_flexion_l	hip_adduction_l	hip_rotation_l	knee_angle_l	ankle_angle_l	subtalar_angle_l	lumbar_extension	lumbar_bending	lumbar_rotation
      5.60000000	      1.92292702	     -1.59700860	    307.53185077	     -0.48859456	      1.06562997	      0.73071846	     23.45682510	     -3.75325029	      4.92373011	    -29.96032967	      8.95872828	      5.12817038	     -7.53131205	      9.79089148	     11.19505271	    -12.48888513	     14.41097198	    -15.74303983	     -4.79925180	     -4.64572987	     -8.50135481
      5.61000000	      1.76015852	     -1.64725427	    308.35074328	     -0.48378233	      1.06461248	      0.73683740	     23.47891051	     -3.40359149	      4.62733949	    -27.64528305	      9.02877316	      5.69157033	     -7.81215148	      9.49708850	     11.90753828	    -12.83263905	     14.82433772	    -15.79801326	     -4.74290764	     -4.40573465	     -8.51309158
      5.62000000	      1.60080546	     -1.71565083	    309.14504078	     -0.47896074	      1.06357810	      0.74301594	     23.42630600	     -3.03255188	      4.34481582	    -25.27017303	      9.09699815	      6.37561130	     -8.11274173	      9.18625851	     12.56485133	    -13.16185294	     15.22680907	    -15.83037560	     -4.69293970	     -4.16155496	     -8.50027194
      5.63000000	      1.45088863	     -1.79664929	    309.90626932	     -0.47414300	      1.06253455	      0.74926653	     23.30245633	     -2.64083717	      4.11614776	    -22.84890007	      9.17111988	      7.18240875	     -8.43921627	      8.86433911	     13.16054318	    -13.46228569	     15.61072821	    -15.83466842	     -4.64683305	     -3.92199829	     -8.45929049
      5.64000000	      1.31015585	     -1.88159778	    310.63097767	     -0.46932890	      1.06147744	      0.75560328	     23.11792866	     -2.23034824	      3.98166147	    -20.40278042	      9.25072458	      8.09265904	     -8.78808812	      8.53421006	     13.68903070	    -13.72657397	     15.97234260	    -15.80755587	     -4.59526662	     -3.69345407	     -8.39053799
      5.65000000	      1.18110383	     -1.96409428	    311.32380879	     -0.46448713	      1.06040307	      0.76204056	     22.87615148	     -1.81067775	      3.97189707	    -17.95518010	      9.34749271	      9.07027831	     -9.16094362	      8.20125016	     14.16144315	    -13.95003855	     16.30882832	    -15.74779997	     -4.53121873	     -3.48080159	     -8.29940570
      5.66000000	      1.06607527	     -2.03635078	    311.98934852	     -0.45958461	      1.05930252	      0.76858536	     22.58523273	     -1.39603057	      4.11751205	    -15.53946296	      9.45733799	     10.07482900	     -9.55368150	      7.87286900	     14.58865678	    -14.13545623	     16.61685124	    -15.65539993	     -4.44909284	     -3.28987850	     -8.19678698
      5.67000000	      0.94741768	     -2.09611547	    312.65238588	     -0.45456278	      1.05814640	      0.77522568	     22.26107146	     -0.99365491	      4.40694313	    -13.19393255	      9.57416200	     11.01033484	     -9.94044654	      7.53517910	     14.96948535	    -14.30989573	     16.90722336	    -15.54386994	     -4.33213973	     -3.10240934	     -8.11763229
      5.68000000	      0.86956795	     -2.13192909	    313.30637116	     -0.44940033	      1.05696460	      0.78194301	     21.89948845	     -0.65347708	      4.88006329	    -10.98425533	      9.68742518	     11.92698804	    -10.36218360	      7.23720727	     15.37863172	    -14.44391932	     17.15707057	    -15.39582346	     -4.21073229	     -2.96724473	     -8.02435082
      5.69000000	      0.82599306	     -2.13345556	    313.97636868	     -0.44406479	      1.05572405	      0.78868521	     21.53182145	     -0.39722514	      5.49980840	     -8.98271091	      9.79857015	     12.74547729	    -10.78689640	      6.98168586	     15.82107444	    -14.57829319	     17.37411668	    -15.21947581	     -4.07820620	     -2.88062368	     -7.95263518
      5.70000000	      0.78324881	     -2.12331377	    314.67654625	     -0.43851729	      1.05442775	      0.79546314	     21.17660875	     -0.19270702	      6.20104258	     -7.25364203	      9.87223558	     13.35456974	    -11.19640049	      6.72444880	     16.26710713	    -14.73611681	     17.56974648	    -15.04547203	     -3.92342008	     -2.79396169	     -7.92869476
      5.71000000	      0.78116597	     -2.08200326	    315.40102207	     -0.43280323	      1.05309551	      0.80221999	     20.86102121	     -0.07703874	      6.98282358	     -5.89928347	      9.93147085	     13.78827789	    -11.60684339	      6.51595424	     16.76739862	    -14.91308704	     17.74031042	    -14.85160198	     -3.77761851	     -2.75879719	     -7.92691361
      5.72000000	      0.79414956	     -2.03017559	    316.15440310	     -0.42690212	      1.05175974	      0.80897474	     20.60014019	     -0.00996248	      7.78507993	     -4.97078801	      9.93687501	     14.00457840	    -12.01244212	      6.31771752	     17.28468528	    -15.11381807	     17.86706632	    -14.64191380	     -3.63400003	     -2.73463286	     -7.95918503
      5.73000000	      0.81751506	     -1.97509557	    316.92446704	     -0.42087542	      1.05044645	      0.81573034	     20.41123882	      0.03628309	      8.59909456	     -4.50714139	      9.85704101	     13.98868889	    -12.40956253	      6.12360003	     17.81819196	    -15.34715169	     17.98157501	    -14.41712555	     -3.50057790	     -2.71842988	     -8.00438273
      5.74000000	      0.84027829	     -1.92608112	    317.71499843	     -0.41471470	      1.04921090	      0.82248070	     20.28767606	      0.08373959	      9.40159914	     -4.48172979	      9.63569641	     13.75235985	    -12.79672032	      5.91587976	     18.35614964	    -15.60830839	     18.02494419	    -14.16610326	     -3.37435078	     -2.69149615	     -8.06715975
      5.75000000	      0.84955120	     -1.90413834	    318.51240321	     -0.40847695	      1.04810044	      0.82927313	     20.21783312	      0.17338840	     10.19979330	     -4.84548164	      9.21692275	     13.30826364	    -13.17830034	      5.66650661	     18.87843103	    -15.89471827	     18.04930588	    -13.87140301	     -3.25957851	     -2.63478284	     -8.12615665
      5.76000000	      0.83669692	     -1.91144669	    319.32418563	     -0.40215158	      1.04717611	      0.83606470	     20.19087160	      0.31004710	     10.96389680	     -5.51129276	      8.55757652	     12.75706929	    -13.54128506	      5.36908720	     19.38815732	    -16.21083373	     17.99894248	    -13.53900119	     -3.14888220	     -2.53305915	     -8.19964435
      5.77000000	      0.79171869	     -1.96202154	    320.14622831	     -0.39576228	      1.04650147	      0.84286990	     20.18623651	      0.51009688	     11.67871231	     -6.37712194	      7.67741639	     12.17055206	    -13.87734069	      5.00623319	     19.86891661	    -16.56804568	     17.87476078	    -13.14504401	     -3.04012276	     -2.37035009	     -8.28965802
      5.78000000	      0.71346208	     -2.05398064	    320.98226738	     -0.38930460	      1.04613783	      0.84964387	     20.19987450	      0.76213909	     12.27936256	     -7.36583472	      6.63529993	     11.64349309	    -14.17476856	      4.58292621	     20.32872376	    -16.97171546	     17.65561631	    -12.67831194	     -2.92789740	     -2.14323050	     -8.39596036
      5.79000000	      0.60943165	     -2.18218228	    321.82890857	     -0.38278118	      1.04613822	      0.85636827	     20.22603638	      1.04614109	     12.70368822	     -8.42283555	      5.54814784	     11.22792452	    -14.42181749	      4.11462171	     20.75777742	    -17.43973306	     17.30447571	    -12.10744791	     -2.81143947	     -1.86243606	     -8.51919263
      5.80000000	      0.48891513	     -2.33513957	    322.68374761	     -0.37616796	      1.04653172	      0.86301786	     20.25988294	      1.33172342	     12.89088806	     -9.51274500	      4.53295773	     10.96136940	    -14.60533463	      3.62469252	     21.13844146	    -17.98996086	     16.79130765	    -11.39895810	     -2.68656511	     -1.54070890	     -8.66213977
      5.81000000	      0.36209780	     -2.50490052	    323.56026503	     -0.36943452	      1.04731643	      0.86955447	     20.30013412	      1.58677769	     12.74619758	    -10.62818679	      3.66089356	     10.86428422	    -14.71637995	      3.13060705	     21.47577823	    -18.64206940	     16.15152661	    -10.57938738	     -2.55647300	     -1.19244688	     -8.82970808
      5.82000000	      0.24995241	     -2.66898614	    324.45707964	     -0.36256537	      1.04848477	      0.87596688	     20.32518703	      1.76793890	     12.27923543	    -11.73145942	      2.97801440	     10.88826015	    -14.75762995	      2.66640056	     21.76096288	    -19.39111257	     15.34815634	     -9.60293403	     -2.42235553	     -0.85280165	     -9.01815472
      5.83000000	      0.17052561	     -2.81373293	    325.39156698	     -0.35554125	      1.05000580	      0.88224205	     20.30553716	      1.84406150	     11.51122324	    -12.78691854	      2.52508240	     10.97945668	    -14.73545110	      2.24871917	     21.99312868	    -20.23523583	     14.38043384	     -8.46836175	     -2.29633926	     -0.54827151	     -9.24360994
      5.84000000	      0.13104870	     -2.93226842	    326.37082504	     -0.34838430	      1.05184475	      0.88837039	     20.20141671	      1.80889159	     10.53128998	    -13.72893894	      2.28497711	     11.07708961	    -14.65418659	      1.88086357	     22.17183816	    -21.16429080	     13.25385605	     -7.15941154	     -2.18588452	     -0.29350642	     -9.49402305
      5.85000000	      0.13374764	     -3.02541632	    327.39872020	     -0.34113523	      1.05395299	      0.89435838	     19.97795492	      1.68092174	      9.45237901	    -14.50700874	      2.23757199	     11.11183481	    -14.52242151	      1.55318220	     22.29044444	    -22.16148635	     11.98003978	     -5.69115213	     -2.10137903	     -0.09204261	     -9.76828725
      5.86000000	      0.17137907	     -3.09736038	    328.47494614	     -0.33385325	      1.05626962	      0.90021190	     19.61120875	      1.49437168	      8.37905729	    -15.07514588	      2.33181201	     11.01233988	    -14.33756424	      1.24845666	     22.33980484	    -23.21862943	     10.57824489	     -4.06897942	     -2.04743834	      0.06127634	    -10.04733542
      5.87000000	      0.23535593	     -3.15309672	    329.59302149	     -0.32661600	      1.05872202	      0.90593819	     19.10540501	      1.28731596	      7.37704557	    -15.43035420	      2.51297801	     10.72108438	    -14.09617030	      0.95144953	     22.32198137	    -24.32840256	      9.07369527	     -2.34375944	     -2.02742098	      0.17323952	    -10.32054140
      5.88000000	      0.31437082	     -3.19191758	    330.73988524	     -0.31948159	      1.06122609	      0.91153982	     18.48312348	      1.08469799	      6.46864005	    -15.58430133	      2.71304343	     10.21542443	    -13.78747686	      0.65504549	     22.23500691	    -25.48881523	      7.49322335	     -0.55831052	     -2.03577232	      0.24925248	    -10.56102541
